<svg xmlns="http://www.w3.org/2000/svg" viewBox="0 0 800 500" fill="none">
  <defs>
    <linearGradient id="bg" x1="0%" y1="0%" x2="100%" y2="100%">
      <stop offset="0%" style="stop-color:#0f172a"/>
      <stop offset="100%" style="stop-color:#1e293b"/>
    </linearGradient>
    <linearGradient id="accent" x1="0%" y1="0%" x2="100%" y2="0%">
      <stop offset="0%" style="stop-color:#2563eb"/>
      <stop offset="100%" style="stop-color:#7c3aed"/>
    </linearGradient>
  </defs>
  <rect width="800" height="500" fill="url(#bg)" rx="12"/>
  <rect x="20" y="20" width="760" height="460" fill="none" stroke="url(#accent)" stroke-width="1" rx="8" opacity="0.3"/>
  <rect x="40" y="40" width="200" height="30" fill="#1e293b" rx="4"/>
  <rect x="40" y="80" width="720" height="1" fill="#334155"/>
  <circle cx="60" cy="60" r="5" fill="#ef4444"/>
  <circle cx="80" cy="60" r="5" fill="#eab308"/>
  <circle cx="100" cy="60" r="5" fill="#22c55e"/>
  <rect x="40" y="100" width="340" height="380" fill="#1e293b" rx="8"/>
  <rect x="60" y="120" width="120" height="12" fill="#334155" rx="2"/>
  <rect x="60" y="144" width="300" height="8" fill="#334155" rx="2" opacity="0.5"/>
  <rect x="60" y="164" width="280" height="8" fill="#334155" rx="2" opacity="0.5"/>
  <rect x="60" y="184" width="310" height="8" fill="#334155" rx="2" opacity="0.5"/>
  <rect x="60" y="220" width="100" height="36" fill="url(#accent)" rx="6"/>
  <rect x="180" y="220" width="100" height="36" fill="#334155" rx="6"/>
  <rect x="420" y="100" width="340" height="380" fill="#1e293b" rx="8"/>
  <rect x="440" y="120" width="140" height="12" fill="#334155" rx="2"/>
  <rect x="440" y="144" width="300" height="8" fill="#334155" rx="2" opacity="0.5"/>
  <rect x="440" y="164" width="260" height="8" fill="#334155" rx="2" opacity="0.5"/>
  <rect x="440" y="184" width="290" height="8" fill="#334155" rx="2" opacity="0.5"/>
  <rect x="440" y="220" width="120" height="36" fill="url(#accent)" rx="6"/>
  <text x="400" y="480" text-anchor="middle" fill="#64748b" font-family="system-ui" font-size="14">Screenshot Placeholder</text>
</svg>
